<svg width="500" height="500" viewBox="0 0 500 500" fill="none" xmlns="http://www.w3.org/2000/svg">
<g clip-path="url(#clip0_38_13)">
<path d="M481.985 0H139.338C134.559 0 130.147 1.83824 126.838 5.14706C86.0294 45.9559 45.5882 86.7647 5.14706 127.206C1.83824 130.515 0 135.294 0 139.706V482.353C0 491.912 7.72059 500 17.6471 500H360.294C365.074 500 369.485 498.162 372.794 494.853C413.235 454.044 454.044 413.235 494.485 372.794C497.794 369.485 499.632 365.074 499.632 360.294V17.6471C499.265 7.72059 491.544 0 481.985 0ZM121.691 59.9265V122.059H59.9265L121.691 59.9265ZM34.9265 157.353H121.324V352.941L34.9265 440.074V157.353ZM342.647 465.074H59.9265L146.691 377.941H343.015V465.074H342.647ZM342.647 342.647H156.618V157.353H342.647V342.647ZM352.941 122.059H156.618V34.9265H439.706L352.941 122.059ZM377.941 440.074V377.941H439.706L377.941 440.074ZM464.338 342.647H377.941V147.059L464.338 59.9265V342.647Z" fill="#00819D"/>
</g>
<defs>
<clipPath id="clip0_38_13">
<rect width="500" height="500" fill="white"/>
</clipPath>
</defs>
</svg>
