<svg width="2216" height="500" viewBox="0 0 2216 500" fill="none" xmlns="http://www.w3.org/2000/svg">
<g clip-path="url(#clip0_1_25)">
<path d="M951.447 424.265C951.447 428.677 949.242 433.088 945.199 437.132C940.789 440.809 937.114 442.647 933.439 442.647C929.765 442.647 925.355 440.809 920.577 436.765L883.46 397.059C871.7 400.735 857 402.574 839.361 402.574H780.561C743.077 402.574 715.147 393.75 697.507 375.735C679.5 357.721 670.68 330.147 670.68 292.647V179.044C670.68 141.544 679.5 113.603 697.507 95.9559C715.514 77.9412 743.077 69.4853 780.561 69.853H839.361C876.845 69.853 904.775 78.6765 922.415 96.6912C940.422 114.706 949.242 142.279 949.242 179.779V292.647C949.242 333.824 938.217 363.603 916.535 381.618L947.037 413.603C950.344 416.912 951.814 420.588 951.814 425L951.447 424.265ZM848.915 361.029L836.053 347.427C832.378 343.75 830.541 340.074 830.541 335.662C830.541 331.25 832.378 327.206 836.421 323.529C840.463 319.485 844.505 317.647 848.548 317.647C852.59 317.647 856.265 319.853 861.41 323.897L887.503 350.735C894.852 345.956 899.997 338.603 902.937 329.412C905.877 320.221 907.715 307.721 907.715 292.279V179.412C907.715 161.765 905.51 148.162 901.467 138.235C897.057 128.309 890.075 121.324 880.52 117.279C870.598 112.868 857 111.029 839.361 111.029H780.561C762.921 111.029 748.957 112.5 739.402 116.912C729.479 121.324 722.497 128.309 718.454 137.868C714.044 147.794 712.207 161.397 712.207 179.044V292.647C712.207 310.662 714.412 324.632 718.454 334.191C722.864 343.75 729.847 350.735 739.402 355.147C748.957 359.559 762.921 361.397 780.929 361.397H849.65L848.915 361.029Z" fill="#00819D"/>
<path d="M1292.12 293.382V309.926C1292.12 340.074 1284.03 362.868 1268.23 378.676C1252.43 394.485 1229.27 402.206 1199.14 402.206H1064.64C1058.02 402.206 1052.88 400.368 1049.57 396.691C1045.89 393.015 1044.06 387.868 1044.06 381.618V90.0735C1044.06 83.4559 1045.89 78.3088 1049.57 75C1053.24 71.3235 1058.39 69.4853 1064.64 69.4853H1192.89C1218.62 69.4853 1238.83 76.4706 1252.79 90.0735C1266.76 103.676 1273.74 123.529 1273.74 148.897V162.132C1273.74 172.794 1271.9 182.353 1268.23 191.176C1264.55 200 1259.41 207.353 1253.16 213.235C1278.89 228.309 1292.12 255.147 1292.12 293.382ZM1085.58 201.471H1208.33C1216.78 200.368 1223.03 196.324 1227.07 189.338C1231.11 182.353 1232.95 173.162 1232.95 162.132V148.897C1232.95 134.926 1230.01 125 1224.13 119.118C1218.25 113.235 1207.96 110.662 1193.26 110.662H1085.58V201.471ZM1250.96 293.382C1250.96 275 1246.91 262.132 1239.2 254.412C1231.48 246.691 1218.25 243.015 1199.51 243.015H1085.58V361.397H1199.51C1217.88 361.397 1231.11 357.353 1239.2 349.632C1247.28 341.912 1251.32 328.676 1251.32 310.294V293.75L1250.96 293.382Z" fill="#00819D"/>
<path d="M1377.37 381.618V90.0735C1377.37 76.4706 1384.36 69.4853 1397.95 69.4853C1411.55 69.4853 1418.53 76.4706 1418.53 90.0735V361.029H1554.51C1568.1 361.029 1575.09 368.015 1575.09 381.618C1575.09 395.221 1568.1 402.206 1554.51 402.206H1397.95C1384.36 402.206 1377.37 395.221 1377.37 381.618Z" fill="#00819D"/>
<path d="M1650.42 375.368C1632.42 357.353 1623.6 329.779 1623.6 292.279V178.676C1623.6 141.176 1632.42 113.235 1650.42 95.5882C1668.43 77.5735 1695.99 69.1177 1733.48 69.4853H1792.28C1829.76 69.4853 1857.69 78.3088 1875.33 96.3235C1893.34 114.338 1902.16 141.912 1902.16 179.412V292.279C1902.16 329.779 1893.34 357.721 1875.33 375.368C1857.32 393.382 1829.76 402.206 1792.28 402.206H1733.48C1695.99 402.206 1668.06 393.382 1650.42 375.368ZM1792.64 361.029C1810.65 361.029 1824.62 358.824 1834.17 354.779C1843.73 350.368 1850.71 343.75 1855.12 333.824C1859.53 324.265 1861.37 310.294 1861.37 292.279V179.412C1861.37 161.765 1859.16 148.162 1855.12 138.235C1850.71 128.309 1843.73 121.324 1834.17 117.279C1824.25 112.868 1810.65 111.029 1793.01 111.029H1734.21C1716.57 111.029 1702.61 112.5 1693.05 116.912C1683.13 121.324 1676.15 128.309 1672.11 137.868C1667.7 147.794 1665.86 161.397 1665.86 179.044V292.647C1665.86 310.662 1668.06 324.632 1672.11 334.191C1676.52 343.75 1683.5 350.735 1693.05 355.147C1702.61 359.559 1716.57 361.397 1734.58 361.397H1793.38L1792.64 361.029Z" fill="#00819D"/>
<path d="M1967.21 381.985C1967.21 377.574 1968.68 373.162 1971.62 368.75L2061.28 236.029L1966.47 102.574C1963.53 98.1618 1962.06 93.75 1962.06 90.4412C1962.06 84.1912 1965.37 78.6765 1971.98 73.8971C1976.39 70.9559 1980.8 69.4853 1984.84 69.4853C1990.72 69.4853 1995.87 72.7941 2000.65 79.4118L2088.48 202.574L2176.68 79.4118C2181.46 72.7941 2186.97 69.4853 2192.48 69.4853C2197.99 69.4853 2200.57 71.3235 2205.34 75C2211.96 79.4118 2215.26 84.9265 2215.26 90.8088C2215.26 96.6912 2213.8 99.2647 2210.49 103.676L2113.84 238.235L2206.45 368.75C2209.39 373.162 2210.85 377.206 2210.85 381.618C2210.85 388.235 2207.55 393.75 2200.93 398.162C2196.52 401.103 2192.48 402.574 2188.07 402.574C2183.66 402.574 2177.05 399.265 2172.27 392.647L2087.01 272.426L2005.42 393.382C2001.01 399.632 1995.87 402.574 1989.62 402.574C1983.38 402.574 1981.17 401.103 1976.39 398.162C1970.15 393.75 1967.21 388.603 1967.21 382.353V381.985Z" fill="#00819D"/>
<path d="M481.787 0H139.281C134.503 0 130.094 1.83824 126.786 5.14706C85.994 45.9559 45.5695 86.7647 5.14494 127.206C1.83748 130.515 0 135.294 0 139.706V482.353C0 491.912 7.71741 500 17.6398 500H360.146C364.923 500 369.333 498.162 372.641 494.853C413.065 454.044 453.857 413.235 494.282 372.794C497.589 369.485 499.427 365.074 499.427 360.294V17.6471C499.059 7.72059 491.342 0 481.787 0ZM121.641 59.9265V122.059H59.9018L121.641 59.9265ZM34.9121 157.353H121.274V352.941L34.9121 440.074V157.353ZM342.506 465.074H59.9018L146.631 377.941H342.874V465.074H342.506ZM342.506 342.647H156.553V157.353H342.506V342.647ZM352.796 122.059H156.553V34.9265H439.525L352.796 122.059ZM377.786 440.074V377.941H439.525L377.786 440.074ZM464.147 342.647H377.786V147.059L464.147 59.9265V342.647Z" fill="#00819D"/>
</g>
<defs>
<clipPath id="clip0_1_25">
<rect width="2216" height="500" fill="white"/>
</clipPath>
</defs>
</svg>
